<svg id="Capa_1" enable-background="new 0 0 512 512" height="512" viewBox="0 0 512 512" width="512" xmlns="http://www.w3.org/2000/svg"><g><path d="m467 211h-75v179.99l27.237.01c-6.213 17.422-22.707 30-42.237 30h-61c-41.353 0-75 34.647-75 76v15h30v-15c0-24.814 20.186-46 45-46h61c36.216 0 66.513-25.809 73.482-60h16.518c24.814 0 45-20.186 45-45v-90c0-24.814-20.186-45-45-45z"/><path d="m45 391h75v-180h-75c-24.814 0-45 20.186-45 45v90c0 24.814 20.186 45 45 45z"/><path d="m256 60c69.307 0 126.911 53.685 134.484 121h60.758c-7.685-100.662-92.611-181-195.242-181s-187.557 80.338-195.242 181h60.758c7.573-67.315 65.177-121 134.484-121z"/></g></svg>